<?xml version="1.0" encoding="UTF-8" standalone="no"?><!DOCTYPE svg PUBLIC "-//W3C//DTD SVG 1.1//EN" "http://www.w3.org/Graphics/SVG/1.1/DTD/svg11.dtd"><svg width="100%" height="100%" viewBox="0 0 168 168" version="1.1" xmlns="http://www.w3.org/2000/svg" xmlns:xlink="http://www.w3.org/1999/xlink" xml:space="preserve" xmlns:serif="http://www.serif.com/" style="fill-rule:evenodd;clip-rule:evenodd;stroke-linejoin:round;stroke-miterlimit:2;"><g><path d="M84.002,1.455c-45.514,0 -82.543,37.029 -82.543,82.546c0,45.515 37.029,82.544 82.543,82.544c45.517,0 82.539,-37.029 82.539,-82.544c0.007,-45.517 -37.024,-82.546 -82.539,-82.546Z" style="fill:#fff;fill-rule:nonzero;"/><path d="M84.002,1.455c-45.514,0 -82.543,37.029 -82.543,82.546c0,45.515 37.029,82.544 82.543,82.544c45.517,0 82.539,-37.029 82.539,-82.544c0.007,-45.517 -37.024,-82.546 -82.539,-82.546Zm0,159.789c-42.591,0 -77.249,-34.656 -77.249,-77.247c0,-42.598 34.652,-77.254 77.249,-77.254c42.593,0 77.25,34.656 77.25,77.254c0,42.595 -34.659,77.247 -77.25,77.247Z" style="fill:url(#_Linear1);fill-rule:nonzero;"/><path d="M84.002,13.793c-38.714,0 -70.21,31.494 -70.21,70.206c0,38.71 31.496,70.203 70.21,70.203c38.712,0 70.21,-31.493 70.21,-70.203c0,-38.712 -31.498,-70.206 -70.21,-70.206Zm0,133.629c-34.974,0 -63.427,-28.453 -63.427,-63.428c0,-34.974 28.453,-63.427 63.427,-63.427c34.975,0 63.423,28.455 63.423,63.43c0,34.977 -28.448,63.425 -63.423,63.425Z" style="fill:url(#_Linear2);fill-rule:nonzero;"/><path d="M84.002,26.589c-31.653,0 -57.41,25.755 -57.41,57.412c0,31.653 25.755,57.406 57.41,57.406c31.66,0 57.413,-25.753 57.413,-57.406c-0.007,-31.657 -25.753,-57.412 -57.413,-57.412m0,105.189c-26.345,0 -47.772,-21.436 -47.772,-47.777c0,-26.348 21.425,-47.783 47.772,-47.783c26.348,0 47.779,21.435 47.779,47.783c0,26.341 -21.433,47.777 -47.779,47.777" style="fill:url(#_Linear3);fill-rule:nonzero;"/><path d="M84.002,142.276c-32.13,0 -58.275,-26.144 -58.275,-58.275c0,-32.135 26.145,-58.281 58.275,-58.281c32.135,0 58.279,26.144 58.279,58.281c0,32.131 -26.144,58.275 -58.279,58.275Zm0,-114.818c-31.171,0 -56.536,25.366 -56.536,56.543c0,31.175 25.365,56.541 56.536,56.541c31.178,0 56.543,-25.366 56.543,-56.541c-0.004,-31.177 -25.365,-56.543 -56.543,-56.543Zm0,105.187c-26.816,0 -48.641,-21.821 -48.641,-48.644c0,-26.823 21.82,-48.65 48.641,-48.65c26.823,0 48.648,21.825 48.648,48.65c0,26.819 -21.825,48.644 -48.648,48.644Zm0,-95.558c-25.859,0 -46.905,21.044 -46.905,46.91c0,25.865 21.046,46.907 46.905,46.907c25.866,0 46.912,-21.042 46.912,-46.907c0,-25.866 -21.046,-46.91 -46.912,-46.91Z" style="fill:#fff;fill-rule:nonzero;"/><path d="M83.715,61.723c-12.119,0 -21.976,9.858 -21.976,21.975c0,12.117 9.855,21.978 21.976,21.978c12.121,0 21.975,-9.859 21.975,-21.978c0.007,-12.117 -9.854,-21.975 -21.975,-21.975m0,34.43c-6.867,0 -12.451,-5.586 -12.451,-12.45c0,-6.869 5.584,-12.458 12.451,-12.458c6.871,0 12.455,5.589 12.455,12.458c0,6.862 -5.584,12.45 -12.455,12.45" style="fill:#00b2b6;fill-rule:nonzero;"/><path d="M84.002,125.584c-22.928,0 -41.587,-18.654 -41.587,-41.587c0,-22.933 18.659,-41.589 41.587,-41.589c22.931,0 41.589,18.656 41.589,41.589c0,22.933 -18.66,41.587 -41.589,41.587Zm0,-73.623c-17.663,0 -32.033,14.373 -32.033,32.036c0,17.663 14.375,32.035 32.033,32.035c17.668,0 32.04,-14.377 32.04,-32.035c-0.002,-17.663 -14.374,-32.036 -32.04,-32.036Z" style="fill:url(#_Linear4);fill-rule:nonzero;"/><g id="Wedges"><path d="M80.24,1.54c1.247,-0.056 2.502,-0.085 3.762,-0.085c1.066,0 2.128,0.021 3.185,0.061l0,90.188l-70.657,-55.205c1.338,-1.895 2.753,-3.731 4.242,-5.504l59.468,46.46l0,-75.915Z" style="fill:#fff;fill-rule:nonzero;"/><path d="M91.588,86.325l-87.037,20.093c-0.626,-2.216 -1.161,-4.469 -1.602,-6.756l72.886,-16.826l-59.306,-46.336c1.338,-1.895 2.753,-3.73 4.241,-5.503l70.818,55.328Z" style="fill:#fff;fill-rule:nonzero;"/><path d="M52.284,160.208c-2.146,-0.897 -4.247,-1.882 -6.297,-2.95l31.56,-67.697l-72.996,16.854c-0.626,-2.216 -1.162,-4.47 -1.603,-6.757l86.926,-20.064l-37.59,80.614Z" style="fill:#fff;fill-rule:nonzero;"/><path d="M122.822,156.833c-2.037,1.09 -4.125,2.098 -6.259,3.017l-32.78,-67.204l-31.503,67.56c-2.142,-0.895 -4.24,-1.878 -6.287,-2.944l37.655,-80.749l39.174,80.32Z" style="fill:#fff;fill-rule:nonzero;"/><path d="M165.29,98.367c-0.404,2.295 -0.904,4.558 -1.494,6.784l-73.838,-15.692l32.863,67.375c-2.037,1.09 -4.124,2.097 -6.258,3.016l-39.094,-80.152l87.821,18.669Z" style="fill:#fff;fill-rule:nonzero;"/><path d="M146.057,29.625c1.526,1.74 2.98,3.543 4.358,5.407l-58.856,47.664l73.731,15.673c-0.404,2.295 -0.904,4.558 -1.495,6.784l-87.929,-18.686l70.191,-56.842Z" style="fill:#fff;fill-rule:nonzero;"/><path d="M80.24,1.54c1.247,-0.056 2.502,-0.085 3.762,-0.085c1.066,0 2.128,0.021 3.185,0.061l0,75.778l58.87,-47.669c1.526,1.739 2.98,3.543 4.357,5.407l-70.174,56.829l0,-90.321Z" style="fill:#fff;fill-rule:nonzero;"/></g><g><path d="M84.073,112.069c-15.531,0 -28.174,-12.636 -28.174,-28.176c0,-15.536 12.643,-28.172 28.174,-28.172c15.536,0 28.177,12.634 28.177,28.172c-0.007,15.54 -12.639,28.176 -28.177,28.176m0,-40.337c-6.707,0 -12.161,5.458 -12.161,12.161c0,6.705 5.454,12.154 12.161,12.154c6.703,0 12.163,-5.449 12.163,-12.154c0,-6.701 -5.46,-12.161 -12.163,-12.161" style="fill:#fff;fill-rule:nonzero;"/><path d="M84.073,113.805c-16.491,0 -29.913,-13.417 -29.913,-29.91c0,-16.493 13.422,-29.908 29.913,-29.908c16.493,0 29.913,13.417 29.913,29.908c-0.003,16.491 -13.418,29.91 -29.913,29.91Zm0,-56.348c-14.578,0 -26.436,11.86 -26.436,26.436c0,14.578 11.858,26.44 26.436,26.44c14.578,0 26.436,-11.862 26.436,-26.44c0,-14.576 -11.86,-26.436 -26.436,-26.436Zm0,40.333c-7.665,0 -13.893,-6.23 -13.893,-13.895c0,-7.663 6.232,-13.899 13.893,-13.899c7.658,0 13.901,6.236 13.901,13.899c-0.002,7.665 -6.243,13.895 -13.901,13.895Zm0,-24.32c-5.752,0 -10.423,4.675 -10.423,10.423c0,5.75 4.675,10.42 10.423,10.42c5.745,0 10.427,-4.67 10.427,-10.42c-0.004,-5.748 -4.682,-10.423 -10.427,-10.423Z" style="fill:#fff;fill-rule:nonzero;"/></g><circle cx="84.002" cy="83.997" r="9.39" style="fill:#00b2b6;"/></g><defs><linearGradient id="_Linear1" x1="0" y1="0" x2="1" y2="0" gradientUnits="userSpaceOnUse" gradientTransform="matrix(165.084,0,0,165.084,1.45856,84.0004)"><stop offset="0" style="stop-color:#091b3b;stop-opacity:1"/><stop offset="1" style="stop-color:#00b2b6;stop-opacity:1"/></linearGradient><linearGradient id="_Linear2" x1="0" y1="0" x2="1" y2="0" gradientUnits="userSpaceOnUse" gradientTransform="matrix(140.421,0,0,140.421,13.7922,83.9971)"><stop offset="0" style="stop-color:#091b3b;stop-opacity:1"/><stop offset="1" style="stop-color:#00b2b6;stop-opacity:1"/></linearGradient><linearGradient id="_Linear3" x1="0" y1="0" x2="1" y2="0" gradientUnits="userSpaceOnUse" gradientTransform="matrix(114.822,0,0,114.822,26.5925,83.9982)"><stop offset="0" style="stop-color:#091b3b;stop-opacity:1"/><stop offset="1" style="stop-color:#00b2b6;stop-opacity:1"/></linearGradient><linearGradient id="_Linear4" x1="0" y1="0" x2="1" y2="0" gradientUnits="userSpaceOnUse" gradientTransform="matrix(83.1746,0,0,83.1746,42.4164,83.9971)"><stop offset="0" style="stop-color:#091b3b;stop-opacity:1"/><stop offset="1" style="stop-color:#00b2b6;stop-opacity:1"/></linearGradient></defs></svg>